<mxfile host="Electron" modified="2023-11-02T11:13:04.595Z" agent="Mozilla/5.0 (Windows NT 10.0; Win64; x64) AppleWebKit/537.36 (KHTML, like Gecko) draw.io/22.0.3 Chrome/114.0.5735.289 Electron/25.8.4 Safari/537.36" etag="iH-Xei9r1nNp9dCbV57c" version="22.0.3" type="device">
  <diagram name="PÃ¡gina-1" id="V54fPeuOKAcv_qHEBmN2">
    <mxGraphModel dx="1539" dy="827" grid="1" gridSize="10" guides="1" tooltips="1" connect="1" arrows="1" fold="1" page="1" pageScale="1" pageWidth="827" pageHeight="1169" math="0" shadow="0">
      <root>
        <mxCell id="0" />
        <mxCell id="1" parent="0" />
        <mxCell id="WhAowgOhukJUzRUu5iDW-3" value="libros" style="whiteSpace=wrap;html=1;align=center;" vertex="1" parent="1">
          <mxGeometry x="120" y="180" width="100" height="40" as="geometry" />
        </mxCell>
        <mxCell id="WhAowgOhukJUzRUu5iDW-5" value="editoriales" style="whiteSpace=wrap;html=1;align=center;" vertex="1" parent="1">
          <mxGeometry x="350" y="180" width="100" height="40" as="geometry" />
        </mxCell>
        <mxCell id="WhAowgOhukJUzRUu5iDW-22" value="titulo libro" style="ellipse;whiteSpace=wrap;html=1;align=center;" vertex="1" parent="1">
          <mxGeometry x="-20" y="250" width="100" height="40" as="geometry" />
        </mxCell>
        <mxCell id="WhAowgOhukJUzRUu5iDW-24" value="autor" style="whiteSpace=wrap;html=1;align=center;" vertex="1" parent="1">
          <mxGeometry x="120" y="330" width="100" height="40" as="geometry" />
        </mxCell>
        <mxCell id="WhAowgOhukJUzRUu5iDW-25" value="nacionalidad" style="ellipse;whiteSpace=wrap;html=1;align=center;" vertex="1" parent="1">
          <mxGeometry x="120" y="480" width="100" height="40" as="geometry" />
        </mxCell>
        <mxCell id="WhAowgOhukJUzRUu5iDW-26" value="editorial" style="ellipse;whiteSpace=wrap;html=1;align=center;" vertex="1" parent="1">
          <mxGeometry x="-420" y="250" width="100" height="40" as="geometry" />
        </mxCell>
        <mxCell id="WhAowgOhukJUzRUu5iDW-27" value="tema" style="ellipse;whiteSpace=wrap;html=1;align=center;" vertex="1" parent="1">
          <mxGeometry x="-140" y="250" width="100" height="40" as="geometry" />
        </mxCell>
        <mxCell id="WhAowgOhukJUzRUu5iDW-28" value="isbn" style="ellipse;whiteSpace=wrap;html=1;align=center;" vertex="1" parent="1">
          <mxGeometry x="-550" y="250" width="100" height="40" as="geometry" />
        </mxCell>
        <mxCell id="WhAowgOhukJUzRUu5iDW-36" value="" style="endArrow=none;html=1;rounded=0;entryX=0.5;entryY=0;entryDx=0;entryDy=0;" edge="1" parent="1" source="WhAowgOhukJUzRUu5iDW-24" target="WhAowgOhukJUzRUu5iDW-25">
          <mxGeometry relative="1" as="geometry">
            <mxPoint x="350" y="350" as="sourcePoint" />
            <mxPoint x="510" y="350" as="targetPoint" />
            <Array as="points" />
          </mxGeometry>
        </mxCell>
        <mxCell id="WhAowgOhukJUzRUu5iDW-54" value="" style="endArrow=none;html=1;rounded=0;exitX=0.5;exitY=1;exitDx=0;exitDy=0;entryX=0.5;entryY=0;entryDx=0;entryDy=0;" edge="1" parent="1" source="WhAowgOhukJUzRUu5iDW-55" target="WhAowgOhukJUzRUu5iDW-24">
          <mxGeometry relative="1" as="geometry">
            <mxPoint x="170" y="269.9999999999998" as="sourcePoint" />
            <mxPoint x="150" y="310" as="targetPoint" />
          </mxGeometry>
        </mxCell>
        <mxCell id="WhAowgOhukJUzRUu5iDW-56" value="" style="endArrow=none;html=1;rounded=0;exitX=0.5;exitY=1;exitDx=0;exitDy=0;entryX=0.5;entryY=0;entryDx=0;entryDy=0;" edge="1" parent="1" target="WhAowgOhukJUzRUu5iDW-55">
          <mxGeometry relative="1" as="geometry">
            <mxPoint x="170" y="269.9999999999998" as="sourcePoint" />
            <mxPoint x="170" y="330" as="targetPoint" />
          </mxGeometry>
        </mxCell>
        <mxCell id="WhAowgOhukJUzRUu5iDW-55" value="escrito por" style="shape=rhombus;perimeter=rhombusPerimeter;whiteSpace=wrap;html=1;align=center;" vertex="1" parent="1">
          <mxGeometry x="110" y="250" width="120" height="60" as="geometry" />
        </mxCell>
        <mxCell id="WhAowgOhukJUzRUu5iDW-57" value="" style="endArrow=none;html=1;rounded=0;exitX=0.5;exitY=1;exitDx=0;exitDy=0;entryX=0.5;entryY=0;entryDx=0;entryDy=0;" edge="1" parent="1" source="WhAowgOhukJUzRUu5iDW-3" target="WhAowgOhukJUzRUu5iDW-55">
          <mxGeometry relative="1" as="geometry">
            <mxPoint x="-80" y="580" as="sourcePoint" />
            <mxPoint x="80" y="580" as="targetPoint" />
          </mxGeometry>
        </mxCell>
        <mxCell id="WhAowgOhukJUzRUu5iDW-58" value="" style="endArrow=none;html=1;rounded=0;exitX=0.5;exitY=0;exitDx=0;exitDy=0;entryX=0;entryY=0.25;entryDx=0;entryDy=0;" edge="1" parent="1" source="WhAowgOhukJUzRUu5iDW-28" target="WhAowgOhukJUzRUu5iDW-3">
          <mxGeometry relative="1" as="geometry">
            <mxPoint x="-260" y="290" as="sourcePoint" />
            <mxPoint x="-100" y="290" as="targetPoint" />
            <Array as="points">
              <mxPoint x="-500" y="190" />
            </Array>
          </mxGeometry>
        </mxCell>
        <mxCell id="WhAowgOhukJUzRUu5iDW-59" value="" style="endArrow=none;html=1;rounded=0;exitX=0.5;exitY=0;exitDx=0;exitDy=0;entryX=0;entryY=0.25;entryDx=0;entryDy=0;" edge="1" parent="1" source="WhAowgOhukJUzRUu5iDW-26" target="WhAowgOhukJUzRUu5iDW-3">
          <mxGeometry relative="1" as="geometry">
            <mxPoint x="-260" y="290" as="sourcePoint" />
            <mxPoint x="-100" y="290" as="targetPoint" />
            <Array as="points">
              <mxPoint x="-370" y="190" />
            </Array>
          </mxGeometry>
        </mxCell>
        <mxCell id="WhAowgOhukJUzRUu5iDW-60" value="" style="endArrow=none;html=1;rounded=0;exitX=0.5;exitY=0;exitDx=0;exitDy=0;entryX=0;entryY=0.25;entryDx=0;entryDy=0;" edge="1" parent="1" target="WhAowgOhukJUzRUu5iDW-3">
          <mxGeometry relative="1" as="geometry">
            <mxPoint x="-230" y="250" as="sourcePoint" />
            <mxPoint x="-100" y="290" as="targetPoint" />
            <Array as="points">
              <mxPoint x="-230" y="190" />
            </Array>
          </mxGeometry>
        </mxCell>
        <mxCell id="WhAowgOhukJUzRUu5iDW-61" value="" style="endArrow=none;html=1;rounded=0;entryX=0;entryY=0.25;entryDx=0;entryDy=0;exitX=0.5;exitY=0;exitDx=0;exitDy=0;" edge="1" parent="1" source="WhAowgOhukJUzRUu5iDW-27" target="WhAowgOhukJUzRUu5iDW-3">
          <mxGeometry relative="1" as="geometry">
            <mxPoint x="-260" y="290" as="sourcePoint" />
            <mxPoint x="-100" y="290" as="targetPoint" />
            <Array as="points">
              <mxPoint x="-90" y="190" />
            </Array>
          </mxGeometry>
        </mxCell>
        <mxCell id="WhAowgOhukJUzRUu5iDW-62" value="" style="endArrow=none;html=1;rounded=0;entryX=0;entryY=0.25;entryDx=0;entryDy=0;exitX=0.5;exitY=0;exitDx=0;exitDy=0;" edge="1" parent="1" source="WhAowgOhukJUzRUu5iDW-22" target="WhAowgOhukJUzRUu5iDW-3">
          <mxGeometry relative="1" as="geometry">
            <mxPoint x="-260" y="290" as="sourcePoint" />
            <mxPoint x="-100" y="290" as="targetPoint" />
            <Array as="points">
              <mxPoint x="30" y="190" />
            </Array>
          </mxGeometry>
        </mxCell>
        <mxCell id="WhAowgOhukJUzRUu5iDW-63" value="estanteria" style="whiteSpace=wrap;html=1;align=center;" vertex="1" parent="1">
          <mxGeometry x="-280" y="300" width="100" height="40" as="geometry" />
        </mxCell>
        <mxCell id="WhAowgOhukJUzRUu5iDW-64" value="tienen" style="shape=rhombus;perimeter=rhombusPerimeter;whiteSpace=wrap;html=1;align=center;" vertex="1" parent="1">
          <mxGeometry x="-290" y="210" width="120" height="60" as="geometry" />
        </mxCell>
        <mxCell id="WhAowgOhukJUzRUu5iDW-65" value="" style="endArrow=none;html=1;rounded=0;exitX=0.5;exitY=1;exitDx=0;exitDy=0;entryX=0.5;entryY=0;entryDx=0;entryDy=0;" edge="1" parent="1" source="WhAowgOhukJUzRUu5iDW-64" target="WhAowgOhukJUzRUu5iDW-63">
          <mxGeometry relative="1" as="geometry">
            <mxPoint x="-260" y="290" as="sourcePoint" />
            <mxPoint x="-100" y="290" as="targetPoint" />
          </mxGeometry>
        </mxCell>
        <mxCell id="WhAowgOhukJUzRUu5iDW-68" value="numero" style="ellipse;whiteSpace=wrap;html=1;align=center;" vertex="1" parent="1">
          <mxGeometry x="-350" y="380" width="100" height="40" as="geometry" />
        </mxCell>
        <mxCell id="WhAowgOhukJUzRUu5iDW-69" value="lugar" style="ellipse;whiteSpace=wrap;html=1;align=center;" vertex="1" parent="1">
          <mxGeometry x="-220" y="380" width="100" height="40" as="geometry" />
        </mxCell>
        <mxCell id="WhAowgOhukJUzRUu5iDW-70" value="" style="endArrow=none;html=1;rounded=0;entryX=0.5;entryY=0;entryDx=0;entryDy=0;exitX=0.5;exitY=1;exitDx=0;exitDy=0;" edge="1" parent="1" source="WhAowgOhukJUzRUu5iDW-63" target="WhAowgOhukJUzRUu5iDW-68">
          <mxGeometry relative="1" as="geometry">
            <mxPoint x="-260" y="290" as="sourcePoint" />
            <mxPoint x="-100" y="290" as="targetPoint" />
          </mxGeometry>
        </mxCell>
        <mxCell id="WhAowgOhukJUzRUu5iDW-71" value="" style="endArrow=none;html=1;rounded=0;entryX=0.5;entryY=0;entryDx=0;entryDy=0;" edge="1" parent="1" target="WhAowgOhukJUzRUu5iDW-69">
          <mxGeometry relative="1" as="geometry">
            <mxPoint x="-230" y="340" as="sourcePoint" />
            <mxPoint x="-100" y="290" as="targetPoint" />
          </mxGeometry>
        </mxCell>
        <mxCell id="WhAowgOhukJUzRUu5iDW-79" value="" style="endArrow=none;html=1;rounded=0;exitX=1;exitY=0.5;exitDx=0;exitDy=0;entryX=0;entryY=0.5;entryDx=0;entryDy=0;" edge="1" parent="1" source="WhAowgOhukJUzRUu5iDW-3" target="WhAowgOhukJUzRUu5iDW-5">
          <mxGeometry relative="1" as="geometry">
            <mxPoint x="470" y="290" as="sourcePoint" />
            <mxPoint x="630" y="290" as="targetPoint" />
            <Array as="points">
              <mxPoint x="280" y="200" />
            </Array>
          </mxGeometry>
        </mxCell>
        <mxCell id="WhAowgOhukJUzRUu5iDW-78" value="pertenece" style="shape=rhombus;perimeter=rhombusPerimeter;whiteSpace=wrap;html=1;align=center;" vertex="1" parent="1">
          <mxGeometry x="240" y="180" width="90" height="40" as="geometry" />
        </mxCell>
        <mxCell id="WhAowgOhukJUzRUu5iDW-80" value="direcciÃ³n" style="ellipse;whiteSpace=wrap;html=1;align=center;" vertex="1" parent="1">
          <mxGeometry x="500" y="180" width="100" height="40" as="geometry" />
        </mxCell>
        <mxCell id="WhAowgOhukJUzRUu5iDW-82" value="1,n" style="text;strokeColor=none;fillColor=none;spacingLeft=4;spacingRight=4;overflow=hidden;rotatable=0;points=[[0,0.5],[1,0.5]];portConstraint=eastwest;fontSize=12;whiteSpace=wrap;html=1;" vertex="1" parent="1">
          <mxGeometry x="-230" y="190" width="40" height="30" as="geometry" />
        </mxCell>
        <mxCell id="WhAowgOhukJUzRUu5iDW-83" value="1,1" style="text;strokeColor=none;fillColor=none;spacingLeft=4;spacingRight=4;overflow=hidden;rotatable=0;points=[[0,0.5],[1,0.5]];portConstraint=eastwest;fontSize=12;whiteSpace=wrap;html=1;" vertex="1" parent="1">
          <mxGeometry x="-230" y="265" width="40" height="30" as="geometry" />
        </mxCell>
        <mxCell id="WhAowgOhukJUzRUu5iDW-85" value="usuario&lt;br&gt;" style="whiteSpace=wrap;html=1;align=center;" vertex="1" parent="1">
          <mxGeometry x="390" y="480" width="100" height="40" as="geometry" />
        </mxCell>
        <mxCell id="WhAowgOhukJUzRUu5iDW-86" value="" style="endArrow=none;html=1;rounded=0;entryX=0.5;entryY=0;entryDx=0;entryDy=0;exitX=0.75;exitY=1;exitDx=0;exitDy=0;" edge="1" parent="1" target="WhAowgOhukJUzRUu5iDW-85">
          <mxGeometry relative="1" as="geometry">
            <mxPoint x="360" y="451.6666666666665" as="sourcePoint" />
            <mxPoint x="200" y="320" as="targetPoint" />
          </mxGeometry>
        </mxCell>
        <mxCell id="WhAowgOhukJUzRUu5iDW-87" value="" style="endArrow=none;html=1;rounded=0;entryX=0.5;entryY=0;entryDx=0;entryDy=0;exitX=0.75;exitY=1;exitDx=0;exitDy=0;" edge="1" parent="1" source="WhAowgOhukJUzRUu5iDW-101" target="WhAowgOhukJUzRUu5iDW-84">
          <mxGeometry relative="1" as="geometry">
            <mxPoint x="195" y="220" as="sourcePoint" />
            <mxPoint x="410" y="340" as="targetPoint" />
            <Array as="points">
              <mxPoint x="320" y="280" />
              <mxPoint x="330" y="370" />
            </Array>
          </mxGeometry>
        </mxCell>
        <mxCell id="WhAowgOhukJUzRUu5iDW-84" value="retira" style="shape=rhombus;perimeter=rhombusPerimeter;whiteSpace=wrap;html=1;align=center;" vertex="1" parent="1">
          <mxGeometry x="300" y="420" width="90" height="50" as="geometry" />
        </mxCell>
        <mxCell id="WhAowgOhukJUzRUu5iDW-88" value="nÂº carne" style="ellipse;whiteSpace=wrap;html=1;align=center;" vertex="1" parent="1">
          <mxGeometry x="510" y="430" width="100" height="40" as="geometry" />
        </mxCell>
        <mxCell id="WhAowgOhukJUzRUu5iDW-89" value="nombre" style="ellipse;whiteSpace=wrap;html=1;align=center;" vertex="1" parent="1">
          <mxGeometry x="510" y="510" width="100" height="40" as="geometry" />
        </mxCell>
        <mxCell id="WhAowgOhukJUzRUu5iDW-92" value="apellidos" style="ellipse;whiteSpace=wrap;html=1;align=center;" vertex="1" parent="1">
          <mxGeometry x="470" y="590" width="100" height="40" as="geometry" />
        </mxCell>
        <mxCell id="WhAowgOhukJUzRUu5iDW-94" value="dni" style="ellipse;whiteSpace=wrap;html=1;align=center;" vertex="1" parent="1">
          <mxGeometry x="430" y="670" width="100" height="40" as="geometry" />
        </mxCell>
        <mxCell id="WhAowgOhukJUzRUu5iDW-95" value="" style="endArrow=none;html=1;rounded=0;entryX=0;entryY=0.5;entryDx=0;entryDy=0;exitX=0.75;exitY=0;exitDx=0;exitDy=0;" edge="1" parent="1" source="WhAowgOhukJUzRUu5iDW-85" target="WhAowgOhukJUzRUu5iDW-88">
          <mxGeometry relative="1" as="geometry">
            <mxPoint x="490" y="470" as="sourcePoint" />
            <mxPoint x="210" y="320" as="targetPoint" />
          </mxGeometry>
        </mxCell>
        <mxCell id="WhAowgOhukJUzRUu5iDW-96" value="" style="endArrow=none;html=1;rounded=0;entryX=-0.011;entryY=0.296;entryDx=0;entryDy=0;exitX=1;exitY=0.5;exitDx=0;exitDy=0;entryPerimeter=0;" edge="1" parent="1" source="WhAowgOhukJUzRUu5iDW-85" target="WhAowgOhukJUzRUu5iDW-89">
          <mxGeometry relative="1" as="geometry">
            <mxPoint x="492" y="485" as="sourcePoint" />
            <mxPoint x="520" y="460" as="targetPoint" />
          </mxGeometry>
        </mxCell>
        <mxCell id="WhAowgOhukJUzRUu5iDW-97" value="" style="endArrow=none;html=1;rounded=0;entryX=0;entryY=0;entryDx=0;entryDy=0;exitX=0.75;exitY=1;exitDx=0;exitDy=0;" edge="1" parent="1" source="WhAowgOhukJUzRUu5iDW-85" target="WhAowgOhukJUzRUu5iDW-92">
          <mxGeometry relative="1" as="geometry">
            <mxPoint x="502" y="495" as="sourcePoint" />
            <mxPoint x="530" y="470" as="targetPoint" />
          </mxGeometry>
        </mxCell>
        <mxCell id="WhAowgOhukJUzRUu5iDW-99" value="" style="endArrow=none;html=1;rounded=0;entryX=0;entryY=0;entryDx=0;entryDy=0;exitX=0.417;exitY=1.118;exitDx=0;exitDy=0;exitPerimeter=0;" edge="1" parent="1" source="WhAowgOhukJUzRUu5iDW-85" target="WhAowgOhukJUzRUu5iDW-94">
          <mxGeometry relative="1" as="geometry">
            <mxPoint x="475" y="530" as="sourcePoint" />
            <mxPoint x="495" y="606" as="targetPoint" />
          </mxGeometry>
        </mxCell>
        <mxCell id="WhAowgOhukJUzRUu5iDW-100" value="prestamo" style="whiteSpace=wrap;html=1;align=center;" vertex="1" parent="1">
          <mxGeometry x="260" y="330" width="100" height="40" as="geometry" />
        </mxCell>
        <mxCell id="WhAowgOhukJUzRUu5iDW-102" value="" style="endArrow=none;html=1;rounded=0;entryX=0.5;entryY=0;entryDx=0;entryDy=0;exitX=0.75;exitY=1;exitDx=0;exitDy=0;" edge="1" parent="1" source="WhAowgOhukJUzRUu5iDW-3" target="WhAowgOhukJUzRUu5iDW-101">
          <mxGeometry relative="1" as="geometry">
            <mxPoint x="195" y="220" as="sourcePoint" />
            <mxPoint x="345" y="420" as="targetPoint" />
            <Array as="points" />
          </mxGeometry>
        </mxCell>
        <mxCell id="WhAowgOhukJUzRUu5iDW-101" value="es" style="shape=rhombus;perimeter=rhombusPerimeter;whiteSpace=wrap;html=1;align=center;" vertex="1" parent="1">
          <mxGeometry x="265" y="250" width="90" height="50" as="geometry" />
        </mxCell>
        <mxCell id="WhAowgOhukJUzRUu5iDW-104" value="" style="endArrow=none;html=1;rounded=0;exitX=1;exitY=0.5;exitDx=0;exitDy=0;" edge="1" parent="1" source="WhAowgOhukJUzRUu5iDW-5">
          <mxGeometry relative="1" as="geometry">
            <mxPoint x="440" y="180" as="sourcePoint" />
            <mxPoint x="500" y="200" as="targetPoint" />
          </mxGeometry>
        </mxCell>
        <mxCell id="WhAowgOhukJUzRUu5iDW-105" value="fini" style="ellipse;whiteSpace=wrap;html=1;align=center;" vertex="1" parent="1">
          <mxGeometry x="380" y="300" width="100" height="40" as="geometry" />
        </mxCell>
        <mxCell id="WhAowgOhukJUzRUu5iDW-106" value="ffin" style="ellipse;whiteSpace=wrap;html=1;align=center;" vertex="1" parent="1">
          <mxGeometry x="380" y="360" width="100" height="40" as="geometry" />
        </mxCell>
        <mxCell id="WhAowgOhukJUzRUu5iDW-107" value="" style="endArrow=none;html=1;rounded=0;exitX=1;exitY=0.5;exitDx=0;exitDy=0;entryX=0;entryY=0.5;entryDx=0;entryDy=0;" edge="1" parent="1" source="WhAowgOhukJUzRUu5iDW-100" target="WhAowgOhukJUzRUu5iDW-105">
          <mxGeometry relative="1" as="geometry">
            <mxPoint x="450" y="410" as="sourcePoint" />
            <mxPoint x="610" y="410" as="targetPoint" />
          </mxGeometry>
        </mxCell>
        <mxCell id="WhAowgOhukJUzRUu5iDW-108" value="" style="endArrow=none;html=1;rounded=0;entryX=0;entryY=0.5;entryDx=0;entryDy=0;" edge="1" parent="1" target="WhAowgOhukJUzRUu5iDW-106">
          <mxGeometry relative="1" as="geometry">
            <mxPoint x="360" y="350" as="sourcePoint" />
            <mxPoint x="390" y="330" as="targetPoint" />
          </mxGeometry>
        </mxCell>
        <mxCell id="WhAowgOhukJUzRUu5iDW-109" value="penalizaciÃ³n" style="whiteSpace=wrap;html=1;align=center;" vertex="1" parent="1">
          <mxGeometry x="190" y="590" width="100" height="40" as="geometry" />
        </mxCell>
        <mxCell id="WhAowgOhukJUzRUu5iDW-111" value="" style="endArrow=none;html=1;rounded=0;exitX=0.5;exitY=0;exitDx=0;exitDy=0;" edge="1" parent="1" source="WhAowgOhukJUzRUu5iDW-110" target="WhAowgOhukJUzRUu5iDW-100">
          <mxGeometry relative="1" as="geometry">
            <mxPoint x="450" y="410" as="sourcePoint" />
            <mxPoint x="610" y="410" as="targetPoint" />
          </mxGeometry>
        </mxCell>
        <mxCell id="WhAowgOhukJUzRUu5iDW-112" value="" style="endArrow=none;html=1;rounded=0;exitX=0.5;exitY=0;exitDx=0;exitDy=0;" edge="1" parent="1" source="WhAowgOhukJUzRUu5iDW-109" target="WhAowgOhukJUzRUu5iDW-110">
          <mxGeometry relative="1" as="geometry">
            <mxPoint x="230" y="585" as="sourcePoint" />
            <mxPoint x="303" y="370" as="targetPoint" />
          </mxGeometry>
        </mxCell>
        <mxCell id="WhAowgOhukJUzRUu5iDW-110" value="tiene" style="shape=rhombus;perimeter=rhombusPerimeter;whiteSpace=wrap;html=1;align=center;" vertex="1" parent="1">
          <mxGeometry x="230" y="490" width="85" height="40" as="geometry" />
        </mxCell>
        <mxCell id="WhAowgOhukJUzRUu5iDW-113" value="isa" style="strokeWidth=2;html=1;shape=mxgraph.flowchart.merge_or_storage;whiteSpace=wrap;" vertex="1" parent="1">
          <mxGeometry x="200" y="680" width="80" height="50" as="geometry" />
        </mxCell>
        <mxCell id="WhAowgOhukJUzRUu5iDW-115" value="multa" style="whiteSpace=wrap;html=1;align=center;" vertex="1" parent="1">
          <mxGeometry x="110" y="780" width="100" height="40" as="geometry" />
        </mxCell>
        <mxCell id="WhAowgOhukJUzRUu5iDW-116" value="suspension" style="whiteSpace=wrap;html=1;align=center;" vertex="1" parent="1">
          <mxGeometry x="255" y="780" width="100" height="40" as="geometry" />
        </mxCell>
        <mxCell id="WhAowgOhukJUzRUu5iDW-117" value="" style="endArrow=none;html=1;rounded=0;exitX=0.5;exitY=0;exitDx=0;exitDy=0;entryX=0.5;entryY=1;entryDx=0;entryDy=0;entryPerimeter=0;" edge="1" parent="1" source="WhAowgOhukJUzRUu5iDW-115" target="WhAowgOhukJUzRUu5iDW-113">
          <mxGeometry relative="1" as="geometry">
            <mxPoint x="450" y="520" as="sourcePoint" />
            <mxPoint x="610" y="520" as="targetPoint" />
          </mxGeometry>
        </mxCell>
        <mxCell id="WhAowgOhukJUzRUu5iDW-118" value="" style="endArrow=none;html=1;rounded=0;exitX=0.5;exitY=0;exitDx=0;exitDy=0;" edge="1" parent="1" source="WhAowgOhukJUzRUu5iDW-116">
          <mxGeometry relative="1" as="geometry">
            <mxPoint x="150" y="800" as="sourcePoint" />
            <mxPoint x="240" y="730" as="targetPoint" />
          </mxGeometry>
        </mxCell>
        <mxCell id="WhAowgOhukJUzRUu5iDW-119" value="importe" style="ellipse;whiteSpace=wrap;html=1;align=center;" vertex="1" parent="1">
          <mxGeometry x="-20" y="760" width="100" height="40" as="geometry" />
        </mxCell>
        <mxCell id="WhAowgOhukJUzRUu5iDW-120" value="tiempo" style="ellipse;whiteSpace=wrap;html=1;align=center;" vertex="1" parent="1">
          <mxGeometry x="390" y="760" width="100" height="40" as="geometry" />
        </mxCell>
        <mxCell id="WhAowgOhukJUzRUu5iDW-121" value="" style="endArrow=none;html=1;rounded=0;entryX=0;entryY=0.5;entryDx=0;entryDy=0;exitX=0.958;exitY=0.664;exitDx=0;exitDy=0;exitPerimeter=0;" edge="1" parent="1" source="WhAowgOhukJUzRUu5iDW-119" target="WhAowgOhukJUzRUu5iDW-115">
          <mxGeometry relative="1" as="geometry">
            <mxPoint x="210" y="520" as="sourcePoint" />
            <mxPoint x="370" y="520" as="targetPoint" />
          </mxGeometry>
        </mxCell>
        <mxCell id="WhAowgOhukJUzRUu5iDW-124" value="" style="endArrow=none;html=1;rounded=0;entryX=0;entryY=0.5;entryDx=0;entryDy=0;exitX=1;exitY=0.5;exitDx=0;exitDy=0;" edge="1" parent="1" source="WhAowgOhukJUzRUu5iDW-116" target="WhAowgOhukJUzRUu5iDW-120">
          <mxGeometry relative="1" as="geometry">
            <mxPoint x="200" y="520" as="sourcePoint" />
            <mxPoint x="360" y="520" as="targetPoint" />
          </mxGeometry>
        </mxCell>
        <mxCell id="WhAowgOhukJUzRUu5iDW-125" value="realiza" style="shape=rhombus;perimeter=rhombusPerimeter;whiteSpace=wrap;html=1;align=center;" vertex="1" parent="1">
          <mxGeometry x="540" y="340" width="90" height="40" as="geometry" />
        </mxCell>
        <mxCell id="WhAowgOhukJUzRUu5iDW-126" value="" style="endArrow=none;html=1;rounded=0;entryX=0.324;entryY=0.829;entryDx=0;entryDy=0;entryPerimeter=0;exitX=0.75;exitY=0;exitDx=0;exitDy=0;" edge="1" parent="1" source="WhAowgOhukJUzRUu5iDW-85" target="WhAowgOhukJUzRUu5iDW-125">
          <mxGeometry relative="1" as="geometry">
            <mxPoint x="200" y="400" as="sourcePoint" />
            <mxPoint x="360" y="400" as="targetPoint" />
          </mxGeometry>
        </mxCell>
        <mxCell id="WhAowgOhukJUzRUu5iDW-127" value="reserva" style="whiteSpace=wrap;html=1;align=center;" vertex="1" parent="1">
          <mxGeometry x="650" y="250" width="100" height="40" as="geometry" />
        </mxCell>
        <mxCell id="WhAowgOhukJUzRUu5iDW-128" value="" style="endArrow=none;html=1;rounded=0;entryX=0.5;entryY=1;entryDx=0;entryDy=0;exitX=1;exitY=0;exitDx=0;exitDy=0;" edge="1" parent="1" source="WhAowgOhukJUzRUu5iDW-125" target="WhAowgOhukJUzRUu5iDW-127">
          <mxGeometry relative="1" as="geometry">
            <mxPoint x="360" y="410" as="sourcePoint" />
            <mxPoint x="520" y="410" as="targetPoint" />
          </mxGeometry>
        </mxCell>
        <mxCell id="WhAowgOhukJUzRUu5iDW-130" value="f reserva" style="ellipse;whiteSpace=wrap;html=1;align=center;" vertex="1" parent="1">
          <mxGeometry x="700" y="185" width="100" height="40" as="geometry" />
        </mxCell>
        <mxCell id="WhAowgOhukJUzRUu5iDW-131" value="estado" style="ellipse;whiteSpace=wrap;html=1;align=center;" vertex="1" parent="1">
          <mxGeometry x="790" y="255" width="100" height="40" as="geometry" />
        </mxCell>
        <mxCell id="WhAowgOhukJUzRUu5iDW-133" value="" style="endArrow=none;html=1;rounded=0;exitX=0.6;exitY=0;exitDx=0;exitDy=0;exitPerimeter=0;" edge="1" parent="1" source="WhAowgOhukJUzRUu5iDW-127" target="WhAowgOhukJUzRUu5iDW-130">
          <mxGeometry relative="1" as="geometry">
            <mxPoint x="712" y="245" as="sourcePoint" />
            <mxPoint x="610" y="410" as="targetPoint" />
          </mxGeometry>
        </mxCell>
        <mxCell id="WhAowgOhukJUzRUu5iDW-134" value="" style="endArrow=none;html=1;rounded=0;entryX=0;entryY=0.5;entryDx=0;entryDy=0;exitX=1;exitY=0.5;exitDx=0;exitDy=0;" edge="1" parent="1" source="WhAowgOhukJUzRUu5iDW-127" target="WhAowgOhukJUzRUu5iDW-131">
          <mxGeometry relative="1" as="geometry">
            <mxPoint x="620" y="410" as="sourcePoint" />
            <mxPoint x="780" y="410" as="targetPoint" />
          </mxGeometry>
        </mxCell>
      </root>
    </mxGraphModel>
  </diagram>
</mxfile>
